<?xml version="1.0" encoding="UTF-8"?>
<svg width="700pt" height="700pt" version="1.1" viewBox="0 0 700 700" xmlns="http://www.w3.org/2000/svg" xmlns:xlink="http://www.w3.org/1999/xlink">
 <defs>
  <!-- <symbol id="u" overflow="visible">
   <path d="m19.547-1.1719c-1.0117 0.52344-2.0625 0.91406-3.1562 1.1719-1.0938 0.26953-2.2344 0.40625-3.4219 0.40625-3.543 0-6.3516-0.98828-8.4219-2.9688-2.0625-1.9766-3.0938-4.6602-3.0938-8.0469 0-3.4062 1.0312-6.0977 3.0938-8.0781 2.0703-1.9766 4.8789-2.9688 8.4219-2.9688 1.1875 0 2.3281 0.13672 3.4219 0.40625 1.0938 0.26172 2.1445 0.65625 3.1562 1.1875v4.3906c-1.0234-0.6875-2.0273-1.1914-3.0156-1.5156-0.98047-0.32031-2.0156-0.48438-3.1094-0.48438-1.9609 0-3.5 0.625-4.625 1.875-1.1172 1.25-1.6719 2.9805-1.6719 5.1875 0 2.1875 0.55469 3.9141 1.6719 5.1719 1.125 1.25 2.6641 1.875 4.625 1.875 1.0938 0 2.1289-0.16016 3.1094-0.48438 0.98828-0.32031 1.9922-0.82812 3.0156-1.5156z"/>
  </symbol>
  <symbol id="b" overflow="visible">
   <path d="m14.297-11.609c-0.44922-0.20703-0.89062-0.35938-1.3281-0.45312-0.4375-0.10156-0.88281-0.15625-1.3281-0.15625-1.3125 0-2.3242 0.42188-3.0312 1.2656-0.71094 0.83594-1.0625 2.0391-1.0625 3.6094v7.3438h-5.0938v-15.953h5.0938v2.625c0.65625-1.0508 1.4062-1.8164 2.25-2.2969 0.85156-0.47656 1.875-0.71875 3.0625-0.71875 0.17578 0 0.36328 0.011719 0.5625 0.03125 0.19531 0.011719 0.48438 0.042969 0.85938 0.09375z"/>
  </symbol>
  <symbol id="a" overflow="visible">
   <path d="m18.375-8.0156v1.4531h-11.922c0.125 1.1992 0.55469 2.0938 1.2969 2.6875 0.73828 0.59375 1.7734 0.89062 3.1094 0.89062 1.0703 0 2.1719-0.15625 3.2969-0.46875 1.125-0.32031 2.2812-0.80469 3.4688-1.4531v3.9375c-1.2109 0.46094-2.418 0.80469-3.625 1.0312-1.2109 0.22656-2.4141 0.34375-3.6094 0.34375-2.8984 0-5.1484-0.72656-6.75-2.1875-1.5938-1.4688-2.3906-3.5312-2.3906-6.1875 0-2.5938 0.78516-4.6328 2.3594-6.125 1.5703-1.5 3.7344-2.25 6.4844-2.25 2.5078 0 4.5156 0.75781 6.0156 2.2656 1.5078 1.5117 2.2656 3.5312 2.2656 6.0625zm-5.2344-1.7031c0-0.96875-0.28906-1.75-0.85938-2.3438-0.5625-0.59375-1.2969-0.89062-2.2031-0.89062-0.99219 0-1.7969 0.28125-2.4219 0.84375-0.61719 0.55469-0.99609 1.3516-1.1406 2.3906z"/>
  </symbol>
  <symbol id="f" overflow="visible">
   <path d="m9.5938-7.1719c-1.0625 0-1.8672 0.18359-2.4062 0.54688-0.53125 0.35547-0.79688 0.88281-0.79688 1.5781 0 0.64844 0.21094 1.1523 0.64062 1.5156 0.4375 0.36719 1.0391 0.54688 1.8125 0.54688 0.95703 0 1.7656-0.34375 2.4219-1.0312s0.98438-1.5469 0.98438-2.5781v-0.57812zm7.7969-1.9375v9.1094h-5.1406v-2.3594c-0.6875 0.96875-1.4609 1.6719-2.3125 2.1094-0.85547 0.4375-1.8906 0.65625-3.1094 0.65625-1.6562 0-3-0.47656-4.0312-1.4375-1.0312-0.96875-1.5469-2.2188-1.5469-3.75 0-1.875 0.64062-3.25 1.9219-4.125 1.2891-0.875 3.3164-1.3125 6.0781-1.3125h3v-0.39062c0-0.8125-0.32031-1.4062-0.95312-1.7812-0.63672-0.375-1.6328-0.5625-2.9844-0.5625-1.0859 0-2.1016 0.10938-3.0469 0.32812-0.9375 0.21875-1.8086 0.54688-2.6094 0.98438v-3.8906c1.082-0.25781 2.1758-0.45703 3.2812-0.59375 1.1016-0.14453 2.207-0.21875 3.3125-0.21875 2.875 0 4.9453 0.57031 6.2188 1.7031 1.2812 1.1367 1.9219 2.9805 1.9219 5.5312z"/>
  </symbol>
  <symbol id="d" overflow="visible">
   <path d="m8.0156-20.484v4.5312h5.2656v3.6406h-5.2656v6.7656c0 0.74219 0.14453 1.2461 0.4375 1.5156 0.30078 0.26172 0.89062 0.39062 1.7656 0.39062h2.6094v3.6406h-4.3594c-2.0234 0-3.4531-0.41406-4.2969-1.25-0.83594-0.84375-1.25-2.2734-1.25-4.2969v-6.7656h-2.5312v-3.6406h2.5312v-4.5312z"/>
  </symbol>
  <symbol id="l" overflow="visible">
   <path d="m13.297-13.625v-8.5312h5.1406v22.156h-5.1406v-2.3125c-0.69922 0.94922-1.4688 1.6406-2.3125 2.0781-0.84375 0.42578-1.8242 0.64062-2.9375 0.64062-1.9688 0-3.5859-0.77344-4.8438-2.3281-1.2617-1.5625-1.8906-3.5781-1.8906-6.0469 0-2.457 0.62891-4.4688 1.8906-6.0312 1.2578-1.5625 2.875-2.3438 4.8438-2.3438 1.1016 0 2.0781 0.22656 2.9219 0.67188 0.85156 0.4375 1.6289 1.1211 2.3281 2.0469zm-3.3594 10.328c1.0938 0 1.9258-0.39453 2.5-1.1875 0.57031-0.80078 0.85938-1.9609 0.85938-3.4844 0-1.5078-0.28906-2.6641-0.85938-3.4688-0.57422-0.80078-1.4062-1.2031-2.5-1.2031-1.0859 0-1.9141 0.40234-2.4844 1.2031-0.57422 0.80469-0.85938 1.9609-0.85938 3.4688 0 1.5234 0.28516 2.6836 0.85938 3.4844 0.57031 0.79297 1.3984 1.1875 2.4844 1.1875z"/>
  </symbol>
  <symbol id="k" overflow="visible">
   <path d="m10.938-3.2969c1.0938 0 1.9258-0.39453 2.5-1.1875 0.57031-0.80078 0.85938-1.9609 0.85938-3.4844 0-1.5078-0.28906-2.6641-0.85938-3.4688-0.57422-0.80078-1.4062-1.2031-2.5-1.2031s-1.9336 0.40234-2.5156 1.2031c-0.58594 0.80469-0.875 1.9609-0.875 3.4688 0 1.5117 0.28906 2.668 0.875 3.4688 0.58203 0.80469 1.4219 1.2031 2.5156 1.2031zm-3.3906-10.328c0.70703-0.92578 1.4883-1.6094 2.3438-2.0469 0.85156-0.44531 1.832-0.67188 2.9375-0.67188 1.9688 0 3.582 0.78125 4.8438 2.3438 1.2695 1.5625 1.9062 3.5742 1.9062 6.0312 0 2.4688-0.63672 4.4844-1.9062 6.0469-1.2617 1.5547-2.875 2.3281-4.8438 2.3281-1.1055 0-2.0859-0.21875-2.9375-0.65625-0.85547-0.4375-1.6367-1.125-2.3438-2.0625v2.3125h-5.0938v-22.156h5.0938z"/>
  </symbol>
  <symbol id="j" overflow="visible">
   <path d="m0.35938-15.953h5.0938l4.2969 10.828 3.6406-10.828h5.0938l-6.7031 17.469c-0.67969 1.7695-1.4648 3.0078-2.3594 3.7188-0.89844 0.70703-2.0781 1.0625-3.5469 1.0625h-2.9531v-3.3438h1.5938c0.86328 0 1.4922-0.14062 1.8906-0.42188 0.39453-0.27344 0.70312-0.76562 0.92188-1.4844l0.14062-0.4375z"/>
  </symbol>
  <symbol id="i" overflow="visible">
   <path d="m0.875-21.266h5.25l3.6719 15.453 3.6562-15.453h5.2812l3.6406 15.453 3.6719-15.453h5.2188l-5.0156 21.266h-6.3281l-3.8594-16.172-3.8125 16.172h-6.3281z"/>
  </symbol>
  <symbol id="h" overflow="visible">
   <path d="m2.2812-6.2031v-9.75h5.125v1.5938c0 0.86719-0.007812 1.9531-0.015625 3.2656-0.011719 1.3047-0.015625 2.1719-0.015625 2.6094 0 1.2812 0.03125 2.2031 0.09375 2.7656 0.070312 0.5625 0.1875 0.97656 0.34375 1.2344 0.21875 0.33594 0.49219 0.58984 0.82812 0.76562 0.33203 0.17969 0.71875 0.26562 1.1562 0.26562 1.0625 0 1.8945-0.40625 2.5-1.2188 0.61328-0.8125 0.92188-1.9453 0.92188-3.4062v-7.875h5.0938v15.953h-5.0938v-2.3125c-0.77344 0.9375-1.5898 1.625-2.4531 2.0625-0.85547 0.4375-1.7969 0.65625-2.8281 0.65625-1.8438 0-3.25-0.5625-4.2188-1.6875-0.96094-1.1328-1.4375-2.7734-1.4375-4.9219z"/>
  </symbol>
  <symbol id="e" overflow="visible">
   <path d="m18.484-9.7188v9.7188h-5.125v-7.4375c0-1.375-0.03125-2.3203-0.09375-2.8438-0.0625-0.51953-0.16797-0.90625-0.3125-1.1562-0.19922-0.33203-0.46875-0.58594-0.8125-0.76562-0.34375-0.1875-0.73438-0.28125-1.1719-0.28125-1.0625 0-1.9023 0.41406-2.5156 1.2344-0.60547 0.8125-0.90625 1.9492-0.90625 3.4062v7.8438h-5.0938v-15.953h5.0938v2.3281c0.76953-0.92578 1.5859-1.6094 2.4531-2.0469 0.86328-0.44531 1.8164-0.67188 2.8594-0.67188 1.8438 0 3.2383 0.57031 4.1875 1.7031 0.95703 1.125 1.4375 2.7656 1.4375 4.9219z"/>
  </symbol>
  <symbol id="t" overflow="visible">
   <path d="m2.4531-22.156h5.0938v12.062l5.875-5.8594h5.9219l-7.7969 7.3281 8.4062 8.625h-6.1719l-6.2344-6.6562v6.6562h-5.0938z"/>
  </symbol>
  <symbol id="s" overflow="visible">
   <path d="m2.6719-21.266h5.4844v21.266h-5.4844z"/>
  </symbol>
  <symbol id="g" overflow="visible">
   <path d="m15.344-15.453v4.1562c-0.69922-0.46875-1.3984-0.81641-2.0938-1.0469-0.69922-0.22656-1.4219-0.34375-2.1719-0.34375-1.4297 0-2.5391 0.41797-3.3281 1.25-0.79297 0.82422-1.1875 1.9805-1.1875 3.4688 0 1.5 0.39453 2.668 1.1875 3.5 0.78906 0.82422 1.8984 1.2344 3.3281 1.2344 0.80078 0 1.5547-0.11719 2.2656-0.35938 0.71875-0.23828 1.3828-0.58594 2-1.0469v4.1719c-0.80469 0.29297-1.6172 0.50781-2.4375 0.65625-0.8125 0.14453-1.6367 0.21875-2.4688 0.21875-2.875 0-5.125-0.73438-6.75-2.2031-1.625-1.4766-2.4375-3.5352-2.4375-6.1719 0-2.625 0.8125-4.6758 2.4375-6.1562 1.625-1.4766 3.875-2.2188 6.75-2.2188 0.83203 0 1.6562 0.078125 2.4688 0.23438 0.8125 0.14844 1.625 0.36719 2.4375 0.65625z"/>
  </symbol>
  <symbol id="c" overflow="visible">
   <path d="m10.047-12.688c-1.1367 0-2 0.40625-2.5938 1.2188s-0.89062 1.9805-0.89062 3.5c0 1.5312 0.29688 2.7031 0.89062 3.5156s1.457 1.2188 2.5938 1.2188c1.1016 0 1.9453-0.40625 2.5312-1.2188 0.59375-0.8125 0.89062-1.9844 0.89062-3.5156 0-1.5195-0.29688-2.6875-0.89062-3.5-0.58594-0.8125-1.4297-1.2188-2.5312-1.2188zm0-3.6562c2.7383 0 4.8789 0.74609 6.4219 2.2344 1.5391 1.4805 2.3125 3.5273 2.3125 6.1406 0 2.625-0.77344 4.6797-2.3125 6.1562-1.543 1.4805-3.6836 2.2188-6.4219 2.2188-2.7617 0-4.918-0.73828-6.4688-2.2188-1.5547-1.4766-2.3281-3.5312-2.3281-6.1562 0-2.6133 0.77344-4.6602 2.3281-6.1406 1.5508-1.4883 3.707-2.2344 6.4688-2.2344z"/>
  </symbol>
  <symbol id="r" overflow="visible">
   <path d="m12.953-22.156v3.3438h-2.8281c-0.71875 0-1.2266 0.13281-1.5156 0.39062-0.28125 0.26172-0.42188 0.71484-0.42188 1.3594v1.1094h4.3594v3.6406h-4.3594v12.312h-5.0938v-12.312h-2.5312v-3.6406h2.5312v-1.1094c0-1.7383 0.48438-3.0195 1.4531-3.8438 0.96875-0.83203 2.4688-1.25 4.5-1.25z"/>
  </symbol>
  <symbol id="q" overflow="visible">
   <path d="m17.234-13.297c0.64453-0.98828 1.4102-1.7422 2.2969-2.2656 0.89453-0.51953 1.875-0.78125 2.9375-0.78125 1.832 0 3.2266 0.57031 4.1875 1.7031 0.95703 1.125 1.4375 2.7656 1.4375 4.9219v9.7188h-5.125v-8.3125-0.39062c0.007812-0.13281 0.015625-0.32031 0.015625-0.5625 0-1.1328-0.16797-1.9531-0.5-2.4531-0.32422-0.50781-0.85938-0.76562-1.6094-0.76562-0.96875 0-1.7188 0.40234-2.25 1.2031-0.52344 0.79297-0.79297 1.9453-0.8125 3.4531v7.8281h-5.125v-8.3125c0-1.7695-0.15234-2.9062-0.45312-3.4062-0.30469-0.50781-0.84375-0.76562-1.625-0.76562-0.98047 0-1.7344 0.40234-2.2656 1.2031-0.53125 0.80469-0.79688 1.9492-0.79688 3.4375v7.8438h-5.125v-15.953h5.125v2.3281c0.625-0.89453 1.3438-1.5703 2.1562-2.0312 0.8125-0.45703 1.707-0.6875 2.6875-0.6875 1.1016 0 2.0781 0.26562 2.9219 0.79688s1.4844 1.2812 1.9219 2.25z"/>
  </symbol>
  <symbol id="p" overflow="visible">
   <path d="m18.484-9.7188v9.7188h-5.125v-7.4062c0-1.3945-0.03125-2.3516-0.09375-2.875-0.0625-0.51953-0.16797-0.90625-0.3125-1.1562-0.19922-0.33203-0.46875-0.58594-0.8125-0.76562-0.34375-0.1875-0.73438-0.28125-1.1719-0.28125-1.0625 0-1.9023 0.41406-2.5156 1.2344-0.60547 0.8125-0.90625 1.9492-0.90625 3.4062v7.8438h-5.0938v-22.156h5.0938v8.5312c0.76953-0.92578 1.5859-1.6094 2.4531-2.0469 0.86328-0.44531 1.8164-0.67188 2.8594-0.67188 1.8438 0 3.2383 0.57031 4.1875 1.7031 0.95703 1.125 1.4375 2.7656 1.4375 4.9219z"/>
  </symbol>
  <symbol id="o" overflow="visible">
   <path d="m2.6719-21.266h6.125l7.7344 14.578v-14.578h5.2031v21.266h-6.125l-7.7344-14.594v14.594h-5.2031z"/>
  </symbol>
  <symbol id="n" overflow="visible">
   <path d="m2.6719-21.266h9.1094c2.707 0 4.7852 0.60547 6.2344 1.8125 1.4453 1.1992 2.1719 2.9062 2.1719 5.125 0 2.2305-0.72656 3.9492-2.1719 5.1562-1.4492 1.1992-3.5273 1.7969-6.2344 1.7969h-3.625v7.375h-5.4844zm5.4844 3.9688v5.9375h3.0469c1.0625 0 1.8789-0.25391 2.4531-0.76562 0.58203-0.51953 0.875-1.2539 0.875-2.2031 0-0.94531-0.29297-1.6758-0.875-2.1875-0.57422-0.51953-1.3906-0.78125-2.4531-0.78125z"/>
  </symbol>
  <symbol id="m" overflow="visible">
   <path d="m2.4531-15.953h5.0938v15.672c0 2.1328-0.51562 3.7656-1.5469 4.8906-1.0234 1.125-2.5078 1.6875-4.4531 1.6875h-2.5156v-3.3438h0.89062c0.96875 0 1.6289-0.21875 1.9844-0.65625 0.36328-0.4375 0.54688-1.2969 0.54688-2.5781zm0-6.2031h5.0938v4.1562h-5.0938z"/>
  </symbol> -->
 </defs>
 <g>
  <path d="m575.11 27.637c-3.3359 1.7617-7.0117 3.7109-10.91 5.7773l-5.9492-11.938c-1.4453-2.8789-4.9453-4.0586-7.8281-2.625-2.8828 1.4375-4.0469 4.9492-2.6133 7.8281l6.0664 12.184c-3.6055 1.8984-7.2812 3.8359-10.91 5.75l-5.3516-10.734c-1.4375-2.8789-4.9492-4.0469-7.8281-2.6133-2.8828 1.4375-4.0508 4.9492-2.6133 7.8281l5.457 10.945c-3.8359 2.0156-7.5234 3.9414-10.93 5.7266l-4.7266-9.4727c-1.4336-2.8828-4.9336-4.0469-7.8164-2.6133-2.8828 1.4336-4.0586 4.9336-2.625 7.8164l4.8086 9.6367c-2.5469 1.3203-4.6914 2.4141-6.3242 3.2305-6.9062 3.4648-9.918 7.7266-11.129 11.598-1.25 4.0273-0.62109 7.9453 0.73438 11.199 0.37109 0.89844 0.80469 1.7383 1.2344 2.5078l-180.98 181.43c-2.707 0.36328-10.152 0.50391-17.711-7.0703-10.941-10.965-7.5-21.559-3.0312-30.508 1.4102-2.8242 4.1875-5.5781 7-8.3984 3.5547-3.5703 7.2422-7.1758 9.6719-10.746 2.7266-4.0117 3.9883-8.1094 3.3594-12.133-0.44531-2.8242-1.7969-5.7188-4.6211-8.5391 0 0-19.742-21.586-61.902 20.684-13 13.031-18.527 27.078-24.488 41.742-5.4141 13.324-11.25 27.172-25.039 40.996-9.8008 9.8242-26.598 14.457-44.742 20.852-19.855 6.9883-41.254 15.715-58.426 32.922-13.359 13.395-25.469 32.41-24.91 57.516 0.53906 24.277 13.078 54.695 49.68 91.375 43.992 44.109 75.949 56.395 99.762 54.109 16.625-1.5859 29.703-10.137 40.551-21.012 17.164-17.207 25.867-38.652 32.844-58.555 6.3711-18.188 11-35.035 20.801-44.871 7.6523-7.6641 14.117-10.77 21.98-14.406 8.7148-4.0273 19.027-8.6016 33.891-19.238 21.223-15.203 26.777-27.988 27.559-36.578 0.98047-10.648-4.9102-16.496-4.9102-16.496-0.035156-0.035157-0.070312-0.082032-0.10547-0.11719-5.0742-5.0859-12.121-4.8984-18.832-1.8438-7.418 3.375-14.188 10.117-14.188 10.117-6.6719 6.6953-18.445 6.3359-28.887-4.1289-10.23-10.258-8.2227-16.324-8.0469-16.789l214.39-214.91c4.5625-4.5586 11.957-4.5586 16.508 0 1.0977 1.0977 2.5781 1.7148 4.1289 1.7148 1.5547 0 3.0352-0.61719 4.1328-1.7148 15.828-15.863 18.758-29.797 34.812-57.727 8.7734 4.457 19.762 3.0234 27.09-4.3281 9.1016-9.1211 9.1016-23.926 0-33.051-8.7383-8.7617-20.207-7.0938-31.629-1.0391 0 0-2.2852 1.2148-6.1367 3.2578l-6.5469-13.113c-1.4336-2.8828-4.9336-4.0625-7.8164-2.6133-2.8789 1.4336-4.0586 4.9336-2.625 7.8164zm-263.48 312.87-88.762 88.98 8.2695 8.2969c2.2656 2.2734 2.2656 5.9609 0 8.2344l-0.78125 0.78125c3.1055 5.1562 7.9922 14.668 10.605 26.973 1.4844 6.9805 1.3555 15.344 1.9492 23.137 0.46484 6.0195 1.1445 11.738 4.7383 15.332 3.7891 3.8008 8.1641 1.957 11.594-0.25781 3.0938-2.0078 5.6367-4.5742 7.0352-6.125 9.1484-15.215 14.328-31.852 19.461-46.621 5.4141-15.562 10.887-29.203 19.672-38.008 8.8555-8.8672 16.25-12.566 25.34-16.754 8.2344-3.8047 17.965-8.0977 32-18.145 30.754-22.023 21.598-34.754 20.965-35.559-0.59375-0.52344-1.3516-0.55859-2.1094-0.46484-1.168 0.125-2.3477 0.55859-3.5117 1.082-5.6602 2.5781-10.77 7.7578-10.77 7.7578-10.43 10.457-29.098 12.219-45.406-4.1406-5.543-5.5508-8.6328-10.418-10.289-14.5zm-92.867 101.39-8.2617 8.2812-41.289-41.379 8.2734-8.2852zm297.12-330.96-305.4 306.13 4.1406 4.1562 305.39-306.14s-1.7031-1.7148-4.1328-4.1523zm-12.387-12.414-305.4 306.13 4.1406 4.1562 305.4-306.13zm-216.26 200.27c-0.44141-1.3516-1.0938-2.9961-1.9922-4.6055-1.3906-2.4375-3.3711-5.168-6.8945-4.4805-10.211 1.9844-14.211 8.0156-18.156 14.605-3.3945 5.6719-6.7188 11.738-12.062 17.105-8.9727 8.9805-16.754 12.434-26.273 16.391-8.5039 3.5352-18.516 7.5586-32.539 17.629-9.8359 7.0586-13.719 14.523-14.582 21.105-0.51563 3.8945 0 7.4297 0.76953 10.219 0.62891-0.22266 1.293-0.33984 1.9727-0.33984 1.5508 0 3.0312 0.60938 4.1289 1.7148l8.25 8.2617zm241.02-191.96c7.6445-7.6641 19.297-8.9023 28.234-3.6992 13.09-14.805 15.973-29.145 32.785-57.238 0.93359-1.5391 2.5078-2.5664 4.293-2.7852 1.7852-0.22266 3.5703 0.39453 4.8398 1.668 4.5625 4.5625 11.949 4.5625 16.508 0 4.5625-4.5742 4.5625-12.008 0-16.578-4.9453-4.9609-11.434-2.4062-17.895 1.0273 0 0-70.258 37.285-86.789 45.566-3 1.5078-4.6914 2.9531-5.2148 4.6445-0.49219 1.5742 0.21094 3.0703 0.82812 4.1992 0.74609 1.3906 22.41 23.195 22.41 23.195z" fill-rule="evenodd"/>
  <!-- <use x="70" y="647.5" xlink:href="#u"/>
  <use x="91.40625" y="647.5" xlink:href="#b"/>
  <use x="105.789062" y="647.5" xlink:href="#a"/>
  <use x="125.570312" y="647.5" xlink:href="#f"/>
  <use x="145.253906" y="647.5" xlink:href="#d"/>
  <use x="159.195312" y="647.5" xlink:href="#a"/>
  <use x="178.976562" y="647.5" xlink:href="#l"/>
  <use x="210.007812" y="647.5" xlink:href="#k"/>
  <use x="230.886719" y="647.5" xlink:href="#j"/>
  <use x="260.054688" y="647.5" xlink:href="#i"/>
  <use x="292.226562" y="647.5" xlink:href="#f"/>
  <use x="311.90625" y="647.5" xlink:href="#b"/>
  <use x="326.289062" y="647.5" xlink:href="#h"/>
  <use x="347.054688" y="647.5" xlink:href="#e"/>
  <use x="367.820312" y="647.5" xlink:href="#t"/>
  <use x="397.371094" y="647.5" xlink:href="#s"/>
  <use x="408.222656" y="647.5" xlink:href="#g"/>
  <use x="425.511719" y="647.5" xlink:href="#c"/>
  <use x="445.550781" y="647.5" xlink:href="#e"/>
  <use x="70" y="676.667969" xlink:href="#r"/>
  <use x="82.6875" y="676.667969" xlink:href="#b"/>
  <use x="97.074219" y="676.667969" xlink:href="#c"/>
  <use x="117.109375" y="676.667969" xlink:href="#q"/>
  <use x="157.65625" y="676.667969" xlink:href="#d"/>
  <use x="171.597656" y="676.667969" xlink:href="#p"/>
  <use x="192.363281" y="676.667969" xlink:href="#a"/>
  <use x="222.300781" y="676.667969" xlink:href="#o"/>
  <use x="246.710938" y="676.667969" xlink:href="#c"/>
  <use x="266.746094" y="676.667969" xlink:href="#h"/>
  <use x="287.511719" y="676.667969" xlink:href="#e"/>
  <use x="318.429688" y="676.667969" xlink:href="#n"/>
  <use x="339.804688" y="676.667969" xlink:href="#b"/>
  <use x="354.191406" y="676.667969" xlink:href="#c"/>
  <use x="374.226562" y="676.667969" xlink:href="#m"/>
  <use x="384.226562" y="676.667969" xlink:href="#a"/>
  <use x="404.007812" y="676.667969" xlink:href="#g"/>
  <use x="421.296875" y="676.667969" xlink:href="#d"/> -->
 </g>
</svg>
