<?xml version="1.0" encoding="UTF-8"?>
<svg width="700pt" height="700pt" version="1.1" viewBox="0 0 700 700" xmlns="http://www.w3.org/2000/svg" xmlns:xlink="http://www.w3.org/1999/xlink">
 <!-- <defs>
  <symbol id="w" overflow="visible">
   <path d="m25-1.5c-1.2812 0.67969-2.625 1.1836-4.0312 1.5156-1.3984 0.34375-2.8516 0.51562-4.3594 0.51562-4.5312 0-8.125-1.2656-10.781-3.7969-2.6484-2.5391-3.9688-5.9766-3.9688-10.312 0-4.3516 1.3203-7.7969 3.9688-10.328 2.6562-2.5312 6.25-3.7969 10.781-3.7969 1.5078 0 2.9609 0.17188 4.3594 0.51562 1.4062 0.33594 2.75 0.83594 4.0312 1.5v5.6406c-1.293-0.88281-2.5742-1.5352-3.8438-1.9531-1.2617-0.41406-2.5898-0.625-3.9844-0.625-2.5 0-4.4688 0.80469-5.9062 2.4062-1.4375 1.6055-2.1562 3.8203-2.1562 6.6406 0 2.8047 0.71875 5.0078 2.1562 6.6094 1.4375 1.6055 3.4062 2.4062 5.9062 2.4062 1.3945 0 2.7227-0.20312 3.9844-0.60938 1.2695-0.41406 2.5508-1.0664 3.8438-1.9531z"/>
  </symbol>
  <symbol id="c" overflow="visible">
   <path d="m18.297-14.859c-0.57422-0.25781-1.1406-0.45312-1.7031-0.57812-0.5625-0.13281-1.1328-0.20312-1.7031-0.20312-1.6797 0-2.9688 0.54297-3.875 1.625-0.90625 1.0742-1.3594 2.6094-1.3594 4.6094v9.4062h-6.5156v-20.406h6.5156v3.3438c0.84375-1.332 1.8047-2.3047 2.8906-2.9219 1.0938-0.61328 2.3945-0.92188 3.9062-0.92188 0.21875 0 0.45312 0.011719 0.70312 0.03125 0.25781 0.023438 0.63281 0.058594 1.125 0.10938z"/>
  </symbol>
  <symbol id="a" overflow="visible">
   <path d="m23.516-10.266v1.8594h-15.266c0.16406 1.5312 0.72266 2.6836 1.6719 3.4531 0.94531 0.76172 2.2695 1.1406 3.9688 1.1406 1.375 0 2.7812-0.20312 4.2188-0.60938s2.9141-1.0195 4.4375-1.8438v5.0312c-1.543 0.58594-3.0859 1.0234-4.625 1.3125-1.543 0.30078-3.0898 0.45312-4.6406 0.45312-3.6875 0-6.5586-0.9375-8.6094-2.8125-2.043-1.8828-3.0625-4.5195-3.0625-7.9062 0-3.332 1.0039-5.9531 3.0156-7.8594 2.0078-1.9062 4.7734-2.8594 8.2969-2.8594 3.207 0 5.7734 0.96875 7.7031 2.9062 1.9258 1.9297 2.8906 4.5078 2.8906 7.7344zm-6.7031-2.1719c0-1.2383-0.36719-2.2344-1.0938-2.9844-0.71875-0.75781-1.6641-1.1406-2.8281-1.1406-1.2734 0-2.3047 0.35547-3.0938 1.0625-0.78125 0.71094-1.2734 1.7305-1.4688 3.0625z"/>
  </symbol>
  <symbol id="g" overflow="visible">
   <path d="m12.281-9.1875c-1.3555 0-2.375 0.23438-3.0625 0.70312-0.6875 0.46094-1.0312 1.1367-1.0312 2.0312 0 0.82422 0.27344 1.4688 0.82812 1.9375 0.55078 0.46875 1.3164 0.70312 2.2969 0.70312 1.2266 0 2.2578-0.4375 3.0938-1.3125 0.84375-0.88281 1.2656-1.9883 1.2656-3.3125v-0.75zm9.9688-2.4531v11.641h-6.5781v-3.0312c-0.875 1.2422-1.8594 2.1484-2.9531 2.7188-1.0938 0.5625-2.4219 0.84375-3.9844 0.84375-2.1172 0-3.8359-0.61328-5.1562-1.8438-1.3125-1.2383-1.9688-2.8438-1.9688-4.8125 0-2.3945 0.82031-4.1484 2.4688-5.2656 1.6445-1.1133 4.2266-1.6719 7.75-1.6719h3.8438v-0.51562c0-1.0312-0.40625-1.7852-1.2188-2.2656-0.8125-0.47656-2.0859-0.71875-3.8125-0.71875-1.3984 0-2.6992 0.14062-3.9062 0.42188-1.1992 0.27344-2.3125 0.6875-3.3438 1.25v-4.9688c1.3945-0.34375 2.7969-0.60156 4.2031-0.78125 1.4141-0.17578 2.8281-0.26562 4.2344-0.26562 3.6875 0 6.3438 0.73047 7.9688 2.1875 1.6328 1.4492 2.4531 3.8086 2.4531 7.0781z"/>
  </symbol>
  <symbol id="b" overflow="visible">
   <path d="m10.266-26.203v5.7969h6.7188v4.6562h-6.7188v8.6562c0 0.94922 0.1875 1.5898 0.5625 1.9219 0.375 0.33594 1.1172 0.5 2.2344 0.5h3.3594v4.6719h-5.5938c-2.5742 0-4.4023-0.53516-5.4844-1.6094-1.0742-1.0703-1.6094-2.8984-1.6094-5.4844v-8.6562h-3.25v-4.6562h3.25v-5.7969z"/>
  </symbol>
  <symbol id="k" overflow="visible">
   <path d="m17.031-17.422v-10.938h6.5469v28.359h-6.5469v-2.9531c-0.90625 1.2109-1.9023 2.0938-2.9844 2.6562-1.0742 0.55078-2.3242 0.82812-3.75 0.82812-2.5117 0-4.5781-1-6.2031-3-1.6172-2-2.4219-4.5703-2.4219-7.7188 0-3.1445 0.80469-5.7188 2.4219-7.7188 1.625-2 3.6914-3 6.2031-3 1.4062 0 2.6484 0.28906 3.7344 0.85938 1.0938 0.5625 2.0938 1.4375 3 2.625zm-4.3125 13.219c1.3945 0 2.4609-0.50781 3.2031-1.5312 0.73828-1.0195 1.1094-2.5039 1.1094-4.4531 0-1.9453-0.37109-3.4297-1.1094-4.4531-0.74219-1.0195-1.8086-1.5312-3.2031-1.5312-1.3867 0-2.4492 0.51172-3.1875 1.5312-0.73047 1.0234-1.0938 2.5078-1.0938 4.4531 0 1.9492 0.36328 3.4336 1.0938 4.4531 0.73828 1.0234 1.8008 1.5312 3.1875 1.5312z"/>
  </symbol>
  <symbol id="f" overflow="visible">
   <path d="m14-4.2031c1.3945 0 2.457-0.50781 3.1875-1.5312 0.73828-1.0195 1.1094-2.5039 1.1094-4.4531 0-1.9453-0.37109-3.4297-1.1094-4.4531-0.73047-1.0195-1.793-1.5312-3.1875-1.5312-1.3984 0-2.4688 0.51562-3.2188 1.5469-0.75 1.0234-1.125 2.5-1.125 4.4375 0 1.9297 0.375 3.4062 1.125 4.4375s1.8203 1.5469 3.2188 1.5469zm-4.3438-13.219c0.90625-1.1875 1.9062-2.0625 3-2.625 1.0938-0.57031 2.3477-0.85938 3.7656-0.85938 2.5078 0 4.5703 1 6.1875 3 1.625 2 2.4375 4.5742 2.4375 7.7188 0 3.1484-0.8125 5.7188-2.4375 7.7188-1.6172 2-3.6797 3-6.1875 3-1.418 0-2.6719-0.28125-3.7656-0.84375-1.0938-0.57031-2.0938-1.4531-3-2.6406v2.9531h-6.5156v-28.359h6.5156z"/>
  </symbol>
  <symbol id="j" overflow="visible">
   <path d="m0.45312-20.406h6.5312l5.4844 13.844 4.6719-13.844h6.5156l-8.5781 22.344c-0.86719 2.2695-1.875 3.8594-3.0312 4.7656-1.1484 0.90625-2.6562 1.3594-4.5312 1.3594h-3.7812v-4.2969h2.0469c1.1016 0 1.9062-0.17969 2.4062-0.53125 0.50781-0.34375 0.90625-0.97656 1.1875-1.8906l0.17188-0.5625z"/>
  </symbol>
  <symbol id="i" overflow="visible">
   <path d="m19.938-4.9531h-10.969l-1.7344 4.9531h-7.0469l10.078-27.219h8.3594l10.078 27.219h-7.0469zm-9.2188-5.0469h7.4531l-3.7188-10.828z"/>
  </symbol>
  <symbol id="e" overflow="visible">
   <path d="m23.656-12.438v12.438h-6.5625v-9.5156c0-1.7578-0.042969-2.9727-0.125-3.6406-0.074219-0.66406-0.21094-1.1602-0.40625-1.4844-0.25-0.42578-0.59375-0.75391-1.0312-0.98438-0.4375-0.23828-0.9375-0.35938-1.5-0.35938-1.3555 0-2.4219 0.52734-3.2031 1.5781-0.78125 1.0547-1.1719 2.5078-1.1719 4.3594v10.047h-6.5156v-20.406h6.5156v2.9844c0.98828-1.1875 2.0352-2.0625 3.1406-2.625 1.1016-0.57031 2.3203-0.85938 3.6562-0.85938 2.3633 0 4.1562 0.72656 5.375 2.1719 1.2188 1.4492 1.8281 3.5469 1.8281 6.2969z"/>
  </symbol>
  <symbol id="v" overflow="visible">
   <path d="m3.4219-27.219h7.0156v27.219h-7.0156z"/>
  </symbol>
  <symbol id="u" overflow="visible">
   <path d="m17.031-3.4688c-0.90625 1.1992-1.9023 2.0781-2.9844 2.6406-1.0742 0.55469-2.3242 0.82812-3.75 0.82812-2.4922 0-4.5547-0.97656-6.1875-2.9375-1.625-1.9688-2.4375-4.4688-2.4375-7.5 0-3.0508 0.8125-5.5508 2.4375-7.5 1.6328-1.957 3.6953-2.9375 6.1875-2.9375 1.4258 0 2.6758 0.28125 3.75 0.84375 1.082 0.5625 2.0781 1.4453 2.9844 2.6406v-3.0156h6.5469v18.344c0 3.2812-1.0391 5.7852-3.1094 7.5156-2.0625 1.7383-5.0625 2.6094-9 2.6094-1.2812 0-2.5156-0.10156-3.7031-0.29688-1.1875-0.19922-2.3867-0.49609-3.5938-0.89062v-5.0938c1.1445 0.65625 2.2656 1.1445 3.3594 1.4688 1.0938 0.32031 2.1914 0.48438 3.2969 0.48438 2.1328 0 3.7031-0.46875 4.7031-1.4062s1.5-2.3984 1.5-4.3906zm-4.3125-12.703c-1.3438 0-2.3984 0.5-3.1562 1.5-0.75 1-1.125 2.4141-1.125 4.2344 0 1.8672 0.36328 3.2812 1.0938 4.25 0.72656 0.96875 1.7891 1.4531 3.1875 1.4531 1.3633 0 2.4219-0.5 3.1719-1.5 0.75781-1 1.1406-2.3984 1.1406-4.2031 0-1.8203-0.38281-3.2344-1.1406-4.2344-0.75-1-1.8086-1.5-3.1719-1.5z"/>
  </symbol>
  <symbol id="t" overflow="visible">
   <path d="m3.1406-20.406h6.5156v20.406h-6.5156zm0-7.9531h6.5156v5.3281h-6.5156z"/>
  </symbol>
  <symbol id="h" overflow="visible">
   <path d="m2.9219-7.9531v-12.453h6.5625v2.0312c0 1.1055-0.011719 2.4961-0.03125 4.1719-0.011719 1.668-0.015625 2.7812-0.015625 3.3438 0 1.6367 0.039062 2.8203 0.125 3.5469 0.09375 0.71875 0.23828 1.2461 0.4375 1.5781 0.26953 0.41797 0.61719 0.74609 1.0469 0.98438 0.4375 0.23047 0.9375 0.34375 1.5 0.34375 1.3516 0 2.4219-0.51953 3.2031-1.5625 0.78125-1.0508 1.1719-2.5039 1.1719-4.3594v-10.078h6.5156v20.406h-6.5156v-2.9531c-0.99219 1.1875-2.0391 2.0703-3.1406 2.6406-1.0938 0.5625-2.3047 0.84375-3.625 0.84375-2.3672 0-4.1641-0.72266-5.3906-2.1719-1.2305-1.4453-1.8438-3.5508-1.8438-6.3125z"/>
  </symbol>
  <symbol id="s" overflow="visible">
   <path d="m19.078-19.781v4.9688c-1.3984-0.58203-2.7461-1.0195-4.0469-1.3125-1.293-0.28906-2.5156-0.4375-3.6719-0.4375-1.2422 0-2.1641 0.15625-2.7656 0.46875-0.60547 0.30469-0.90625 0.77734-0.90625 1.4219 0 0.52344 0.22656 0.92188 0.6875 1.2031 0.45703 0.28125 1.2734 0.49219 2.4531 0.625l1.1406 0.15625c3.3438 0.42969 5.5938 1.1328 6.75 2.1094 1.1562 0.96875 1.7344 2.4922 1.7344 4.5625 0 2.1797-0.80469 3.8125-2.4062 4.9062-1.6055 1.0938-4 1.6406-7.1875 1.6406-1.3438 0-2.7422-0.10938-4.1875-0.32812-1.4375-0.20703-2.918-0.52344-4.4375-0.95312v-4.9531c1.3008 0.63672 2.6328 1.1094 4 1.4219 1.375 0.3125 2.7656 0.46875 4.1719 0.46875 1.2812 0 2.2383-0.17188 2.875-0.51562 0.64453-0.35156 0.96875-0.87891 0.96875-1.5781 0-0.58203-0.22656-1.0156-0.67188-1.2969-0.4375-0.28906-1.3203-0.51562-2.6406-0.67188l-1.1562-0.14062c-2.8984-0.36328-4.9297-1.0352-6.0938-2.0156-1.168-0.98828-1.75-2.4883-1.75-4.5 0-2.1562 0.73828-3.7539 2.2188-4.7969 1.4766-1.0508 3.75-1.5781 6.8125-1.5781 1.207 0 2.4727 0.09375 3.7969 0.28125 1.3203 0.17969 2.7578 0.46094 4.3125 0.84375z"/>
  </symbol>
  <symbol id="r" overflow="visible">
   <path d="m16.562-28.359v4.2812h-3.6094c-0.91797 0-1.5586 0.16797-1.9219 0.5-0.36719 0.33594-0.54688 0.91797-0.54688 1.75v1.4219h5.5781v4.6562h-5.5781v15.75h-6.5312v-15.75h-3.25v-4.6562h3.25v-1.4219c0-2.2266 0.61719-3.875 1.8594-4.9375 1.2383-1.0625 3.1602-1.5938 5.7656-1.5938z"/>
  </symbol>
  <symbol id="d" overflow="visible">
   <path d="m12.844-16.234c-1.4375 0-2.5391 0.52344-3.2969 1.5625-0.76172 1.0312-1.1406 2.5273-1.1406 4.4844 0 1.9609 0.37891 3.4609 1.1406 4.5 0.75781 1.0312 1.8594 1.5469 3.2969 1.5469 1.4258 0 2.5156-0.51562 3.2656-1.5469 0.75781-1.0391 1.1406-2.5391 1.1406-4.5 0-1.957-0.38281-3.4531-1.1406-4.4844-0.75-1.0391-1.8398-1.5625-3.2656-1.5625zm0-4.6719c3.5195 0 6.2656 0.94922 8.2344 2.8438 1.9766 1.8984 2.9688 4.5234 2.9688 7.875 0 3.3555-0.99219 5.9805-2.9688 7.875-1.9688 1.8984-4.7148 2.8438-8.2344 2.8438-3.5234 0-6.2773-0.94531-8.2656-2.8438-1.9805-1.8945-2.9688-4.5195-2.9688-7.875 0-3.3516 0.98828-5.9766 2.9688-7.875 1.9883-1.8945 4.7422-2.8438 8.2656-2.8438z"/>
  </symbol>
  <symbol id="q" overflow="visible">
   <path d="m22.047-17.031c0.83203-1.2578 1.8164-2.2188 2.9531-2.875 1.1328-0.66406 2.3828-1 3.75-1 2.3438 0 4.125 0.72656 5.3438 2.1719 1.2266 1.4492 1.8438 3.5469 1.8438 6.2969v12.438h-6.5625v-10.641c0.019531-0.15625 0.03125-0.31641 0.03125-0.48438 0.007812-0.17578 0.015625-0.42188 0.015625-0.73438 0-1.4453-0.21484-2.4922-0.64062-3.1406-0.42969-0.65625-1.1172-0.98438-2.0625-0.98438-1.2422 0-2.1992 0.51172-2.875 1.5312-0.66797 1.0234-1.0156 2.4961-1.0469 4.4219v10.031h-6.5625v-10.641c0-2.2578-0.19531-3.7109-0.57812-4.3594-0.38672-0.65625-1.0781-0.98438-2.0781-0.98438-1.25 0-2.2188 0.51562-2.9062 1.5469-0.67969 1.0234-1.0156 2.4844-1.0156 4.3906v10.047h-6.5625v-20.406h6.5625v2.9844c0.80078-1.1562 1.7227-2.0234 2.7656-2.6094 1.0391-0.58203 2.1875-0.875 3.4375-0.875 1.4062 0 2.6484 0.34375 3.7344 1.0312 1.082 0.67969 1.8984 1.625 2.4531 2.8438z"/>
  </symbol>
  <symbol id="p" overflow="visible">
   <path d="m23.656-12.438v12.438h-6.5625v-9.4844c0-1.7812-0.042969-3.0039-0.125-3.6719-0.074219-0.66406-0.21094-1.1602-0.40625-1.4844-0.25-0.42578-0.59375-0.75391-1.0312-0.98438-0.4375-0.23828-0.9375-0.35938-1.5-0.35938-1.3555 0-2.4219 0.52734-3.2031 1.5781-0.78125 1.0547-1.1719 2.5078-1.1719 4.3594v10.047h-6.5156v-28.359h6.5156v10.938c0.98828-1.1875 2.0352-2.0625 3.1406-2.625 1.1016-0.57031 2.3203-0.85938 3.6562-0.85938 2.3633 0 4.1562 0.72656 5.375 2.1719 1.2188 1.4492 1.8281 3.5469 1.8281 6.2969z"/>
  </symbol>
  <symbol id="o" overflow="visible">
   <path d="m3.4219-27.219h7.8438l9.8906 18.672v-18.672h6.6562v27.219h-7.8438l-9.8906-18.672v18.672h-6.6562z"/>
  </symbol>
  <symbol id="n" overflow="visible">
   <path d="m3.4219-27.219h11.656c3.457 0 6.1133 0.77344 7.9688 2.3125 1.8516 1.543 2.7812 3.7305 2.7812 6.5625 0 2.8672-0.92969 5.0703-2.7812 6.6094-1.8555 1.5312-4.5117 2.2969-7.9688 2.2969h-4.6406v9.4375h-7.0156zm7.0156 5.0938v7.5938h3.8906c1.3633 0 2.4141-0.32812 3.1562-0.98438 0.73828-0.66406 1.1094-1.6094 1.1094-2.8281 0-1.207-0.37109-2.1406-1.1094-2.7969-0.74219-0.65625-1.793-0.98438-3.1562-0.98438z"/>
  </symbol>
  <symbol id="m" overflow="visible">
   <path d="m3.1406-20.406h6.5156v20.047c0 2.7266-0.65625 4.8125-1.9688 6.25-1.3125 1.4453-3.2148 2.1719-5.7031 2.1719h-3.2188v-4.2969h1.125c1.2383 0 2.0859-0.28125 2.5469-0.84375 0.46875-0.55469 0.70312-1.6484 0.70312-3.2812zm0-7.9531h6.5156v5.3281h-6.5156z"/>
  </symbol>
  <symbol id="l" overflow="visible">
   <path d="m19.625-19.781v5.3281c-0.88672-0.60156-1.7773-1.0508-2.6719-1.3438-0.88672-0.28906-1.8086-0.4375-2.7656-0.4375-1.8242 0-3.2461 0.53125-4.2656 1.5938-1.0117 1.0625-1.5156 2.5469-1.5156 4.4531s0.50391 3.3906 1.5156 4.4531c1.0195 1.0625 2.4414 1.5938 4.2656 1.5938 1.0195 0 1.9883-0.14844 2.9062-0.45312 0.91406-0.30078 1.7578-0.75 2.5312-1.3438v5.3438c-1.0234 0.375-2.0586 0.65625-3.1094 0.84375-1.043 0.1875-2.0938 0.28125-3.1562 0.28125-3.6797 0-6.5586-0.94141-8.6406-2.8281-2.0742-1.8945-3.1094-4.5234-3.1094-7.8906 0-3.3633 1.0352-5.9883 3.1094-7.875 2.082-1.8945 4.9609-2.8438 8.6406-2.8438 1.0703 0 2.125 0.09375 3.1562 0.28125 1.0391 0.1875 2.0781 0.46875 3.1094 0.84375z"/>
  </symbol>
 </defs> -->
 <g>
  <path d="m421.68 314.35c-3.7344-11.199-6.7188-22.398-10.453-33.602-4.4805-14.934-11.199-23.895-20.906-26.879-9.707-3.7344-20.16-1.4922-33.602 6.7188-9.707 5.9727-19.414 11.945-29.121 18.668l-5.2266 2.9883c0-0.74609-0.74609-1.4922-0.74609-2.2383-3.7344-8.9609-7.4648-17.172-11.199-25.387-3.7344-6.7188-3.7344-11.199 1.4922-20.16 31.359-51.52 23.148-98.559-22.398-129.17-6.7188-4.4805-12.691-8.9609-20.16-6.7188-7.4648 2.2383-10.453 8.9609-14.934 17.172-1.4922 2.9883-0.74609 7.4648 1.4922 9.707 1.4922 2.2383 3.7344 4.4805 5.2266 5.9727 3.7344 3.7344 7.4648 7.4648 8.9609 11.945 4.4805 8.9609 8.2148 18.668 7.4648 26.133-2.2383 19.414-11.199 34.348-27.625 44.055-7.4648 4.4805-14.934 8.9609-20.906 14.188-13.441 10.453-15.68 23.895-6.7188 38.078 8.2148 12.691 16.426 25.387 24.641 38.828 6.7188 11.199 14.188 22.398 21.652 34.348 6.7188 9.707 14.934 17.172 24.641 20.906 7.4648 18.668 16.426 39.574 26.133 61.227 10.453 23.895 20.906 48.535 29.867 69.441 1.4922 3.7344 5.2266 5.9727 8.2148 5.9727h1.4922c11.945-2.2383 19.414-3.7344 23.895-9.707 4.4805-6.7188 2.9883-14.934 0-25.387-4.4805-21.652-9.707-40.32-14.188-58.238-2.9883-11.199-9.707-29.121-14.934-44.801-2.2383-5.2266-3.7344-10.453-5.2266-14.934 5.2266-5.2266 10.453-11.199 14.934-16.426 2.2383-2.2383 3.7344-4.4805 5.9727-6.7188l27.625 51.52c1.4922 2.9883 5.2266 5.2266 8.2148 5.2266 1.4922 0 2.9883 0 4.4805-0.74609 23.148-11.945 25.387-16.426 17.922-39.574zm-56.746 150.08c0.74609 2.9883 1.4922 8.2148 2.2383 11.199-0.74609 0-2.2383 0.74609-4.4805 0.74609-8.2148-19.414-17.172-41.066-26.879-62.719-7.4648-17.922-14.934-35.84-21.652-51.52 6.7188-0.74609 12.691-2.9883 18.668-6.7188 0.74609 2.9883 2.2383 5.9727 2.9883 8.9609 5.2266 15.68 11.199 32.852 14.934 43.309 5.2227 17.168 9.7031 35.836 14.184 56.742zm44.801-110.5-29.121-54.508c-1.4922-2.2383-3.7344-4.4805-6.7188-4.4805h-1.4922c-2.2383 0-4.4805 0.74609-5.9727 2.2383-4.4805 4.4805-9.707 10.453-15.68 17.172-8.2148 9.707-17.922 20.16-24.641 24.641-7.4648 4.4805-14.934 6.7188-21.652 5.2266-7.4648-1.4922-14.188-6.7188-19.414-14.934-7.4648-11.199-14.188-22.398-20.906-33.602-8.2148-12.691-16.426-26.133-24.641-38.828-3.7344-5.9727-3.7344-8.9609 2.2383-13.441s11.945-8.9609 18.668-12.691c21.652-12.691 34.348-32.852 37.332-58.238 1.4922-11.945-3.7344-24.641-8.9609-35.84-2.9883-6.7188-8.2148-11.945-11.945-16.426l-0.74609-0.74609v-0.74609c1.4922 0.74609 3.7344 2.2383 4.4805 2.9883 37.332 25.387 43.309 61.973 17.172 104.54-5.9727 9.707-11.199 22.398-2.2383 38.828 3.7344 7.4648 7.4648 14.934 10.453 23.895 1.4922 3.7344 3.7344 8.2148 5.2266 12.691 0.74609 2.2383 2.9883 4.4805 5.9727 5.2266 2.2383 0.74609 5.2266 0.74609 7.4648-0.74609l14.188-8.9609c10.453-6.7188 19.414-12.691 29.121-18.668 7.4648-4.4805 13.441-6.7188 17.172-5.2266 3.7344 1.4922 6.7188 6.7188 8.9609 14.934 3.7344 11.199 6.7188 22.398 10.453 33.602l5.9727 20.906c1.4922 4.4805 2.9883 8.9609 2.9883 11.199-0.75-1.4961-2.2422-0.75-3.7344 0z"/>
  <path d="m491.12 363.62c-14.934-4.4805-19.414-12.691-20.16-33.602 0-30.613-1.4922-61.973-2.9883-91.84-0.74609-17.922-1.4922-35.84-2.2383-53.762 0-12.688-5.2266-20.156-17.176-25.383-5.9727-2.2383-11.945-5.2266-17.922-8.2148-8.9609-4.4805-18.668-8.9609-28.375-11.945-28.375-8.2148-47.039-28.375-66.453-49.281-7.4648-8.2148-15.68-16.426-23.895-24.641-3.7344-3.7344-9.707-2.9883-13.441 0.74609s-2.9883 9.707 0.74609 13.441c8.2148 7.4648 15.68 15.68 23.148 23.148 20.906 22.398 41.812 44.801 74.668 54.508 8.9609 2.2383 17.172 6.7188 26.133 10.453 5.9727 2.9883 12.691 5.9727 19.414 8.2148 4.4805 1.4922 5.9727 2.9883 5.9727 8.9609 0.74609 17.922 1.4922 35.84 2.2383 53.762 1.4922 29.867 2.9883 60.48 2.9883 91.094 0 20.906 4.4805 42.559 33.602 51.52 19.414 5.9727 26.133 17.172 23.895 39.574-1.4922 13.441-1.4922 26.879-0.74609 40.32v17.172c0 5.2266 4.4805 8.9609 8.9609 8.9609 4.4805 0 8.9609-4.4805 8.9609-8.9609v-17.922c-0.74609-12.691-0.74609-25.387 0.74609-37.332 2.9883-29.871-9.707-50.031-38.078-58.992z"/>
  <path d="m249.2 183.68c0-22.398-17.172-39.574-38.828-39.574-10.453 0-20.16 3.7344-27.625 11.199-7.4648 7.4648-11.199 17.172-11.945 28.375 0 10.453 4.4805 20.906 11.945 28.375 7.4648 7.4648 17.172 11.199 26.879 11.199 21.656 0 39.574-17.922 39.574-39.574zm-38.824 20.906c-5.2266 0-10.453-2.2383-14.188-5.9727s-6.7188-9.707-6.7188-14.934c0-5.9727 2.2383-11.199 5.9727-14.934s8.9609-5.9727 14.188-5.9727c11.945 0 20.16 8.9609 20.16 20.906 0.74609 11.199-8.9609 20.906-19.414 20.906z"/>
  <!-- <use x="70" y="672" xlink:href="#w"/>
  <use x="97.398438" y="672" xlink:href="#c"/>
  <use x="115.808594" y="672" xlink:href="#a"/>
  <use x="141.128906" y="672" xlink:href="#g"/>
  <use x="166.324219" y="672" xlink:href="#b"/>
  <use x="184.167969" y="672" xlink:href="#a"/>
  <use x="209.488281" y="672" xlink:href="#k"/>
  <use x="249.210938" y="672" xlink:href="#f"/>
  <use x="275.933594" y="672" xlink:href="#j"/>
  <use x="313.269531" y="672" xlink:href="#i"/>
  <use x="342.160156" y="672" xlink:href="#f"/>
  <use x="368.886719" y="672" xlink:href="#e"/>
  <use x="395.464844" y="672" xlink:href="#a"/>
  <use x="420.785156" y="672" xlink:href="#c"/>
  <use x="452.191406" y="672" xlink:href="#v"/>
  <use x="466.082031" y="672" xlink:href="#u"/>
  <use x="492.808594" y="672" xlink:href="#e"/>
  <use x="519.386719" y="672" xlink:href="#g"/>
  <use x="544.578125" y="672" xlink:href="#b"/>
  <use x="562.425781" y="672" xlink:href="#t"/>
  <use x="575.222656" y="672" xlink:href="#h"/>
  <use x="601.800781" y="672" xlink:href="#s"/>
  <use x="70" y="709.332031" xlink:href="#r"/>
  <use x="86.242188" y="709.332031" xlink:href="#c"/>
  <use x="104.652344" y="709.332031" xlink:href="#d"/>
  <use x="130.300781" y="709.332031" xlink:href="#q"/>
  <use x="182.199219" y="709.332031" xlink:href="#b"/>
  <use x="200.046875" y="709.332031" xlink:href="#p"/>
  <use x="226.625" y="709.332031" xlink:href="#a"/>
  <use x="264.941406" y="709.332031" xlink:href="#o"/>
  <use x="296.1875" y="709.332031" xlink:href="#d"/>
  <use x="321.835938" y="709.332031" xlink:href="#h"/>
  <use x="348.414062" y="709.332031" xlink:href="#e"/>
  <use x="387.988281" y="709.332031" xlink:href="#n"/>
  <use x="415.351562" y="709.332031" xlink:href="#c"/>
  <use x="433.761719" y="709.332031" xlink:href="#d"/>
  <use x="459.410156" y="709.332031" xlink:href="#m"/>
  <use x="472.207031" y="709.332031" xlink:href="#a"/>
  <use x="497.527344" y="709.332031" xlink:href="#l"/>
  <use x="519.660156" y="709.332031" xlink:href="#b"/> -->
 </g>
</svg>
